<svg xmlns="http://www.w3.org/2000/svg" viewBox="0 0 64 64">
  <defs>
    <linearGradient id="body" x1="0" y1="0" x2="1" y2="1">
      <stop offset="0" stop-color="#38bdf8"/>
      <stop offset="1" stop-color="#0ea5e9"/>
    </linearGradient>
  </defs>
  <!-- 车身阴影 -->
  <ellipse cx="32" cy="50" rx="22" ry="4" fill="#020617" opacity="0.45"/>
  <!-- 车身 -->
  <path d="M12 34c0-2.5 1.4-4.8 3.6-6l7.2-4c1.1-.6 2.3-1 3.6-1h8.2c1.7 0 3.3.7 4.5 1.9l5.3 5.3c.7.7 1.6 1.1 2.6 1.1H52c1.7 0 3 1.3 3 3v8c0 1.7-1.3 3-3 3H12c-1.7 0-3-1.3-3-3v-8c0-1.7 1.3-3 3-3z" fill="url(#body)" stroke="#0f172a" stroke-width="1.4" stroke-linejoin="round"/>
  <!-- 车窗 -->
  <path d="M22.5 25.5h9.5c.7 0 1.4.3 1.9.8l4.2 4.2H20.2l1.6-3.2c.4-.9 1.3-1.8 2.3-1.8z" fill="#e0f2fe" stroke="#0f172a" stroke-width="1.2" stroke-linejoin="round"/>
  <!-- 车灯 -->
  <circle cx="16" cy="36.5" r="2" fill="#facc15" stroke="#0f172a" stroke-width="1"/>
  <circle cx="48" cy="36.5" r="1.6" fill="#f97316" stroke="#0f172a" stroke-width="1"/>
  <!-- 轮子 -->
  <circle cx="22" cy="44" r="5" fill="#020617" stroke="#0b1120" stroke-width="1.4"/>
  <circle cx="22" cy="44" r="2.2" fill="#e5e7eb"/>
  <circle cx="42" cy="44" r="5" fill="#020617" stroke="#0b1120" stroke-width="1.4"/>
  <circle cx="42" cy="44" r="2.2" fill="#e5e7eb"/>
  <!-- 车头小箭头，暗示“前进/控制车” -->
  <path d="M36 30.5l2.4 2.4-2.4 2.4" fill="none" stroke="#0f172a" stroke-width="1.4" stroke-linecap="round" stroke-linejoin="round"/>
</svg>
